{
    "asset" : {
        "generator" : "Khronos glTF Blender I/O v1.5.17",
        "version" : "2.0"
    },
    "scene" : 0,
    "scenes" : [
        {
            "name" : "Scene",
            "nodes" : [
                0
            ]
        }
    ],
    "nodes" : [
        {
            "mesh" : 0,
            "name" : "Cube.011"
        }
    ],
    "materials" : [
        {
            "doubleSided" : true,
            "name" : "palace_mat",
            "pbrMetallicRoughness" : {
                "baseColorTexture" : {
                    "index" : 0
                },
                "metallicFactor" : 0
            }
        }
    ],
    "meshes" : [
        {
            "name" : "Cube.011",
            "primitives" : [
                {
                    "attributes" : {
                        "POSITION" : 0,
                        "NORMAL" : 1,
                        "TEXCOORD_0" : 2
                    },
                    "indices" : 3,
                    "material" : 0
                }
            ]
        }
    ],
    "textures" : [
        {
            "sampler" : 0,
            "source" : 0
        }
    ],
    "images" : [
        {
            "bufferView" : 4,
            "mimeType" : "image/png",
            "name" : "tex01"
        }
    ],
    "accessors" : [
        {
            "bufferView" : 0,
            "componentType" : 5126,
            "count" : 40782,
            "max" : [
                -2.6027674674987793,
                7.262352466583252,
                4.13109016418457
            ],
            "min" : [
                -26.14194679260254,
                -1.603835940361023,
                -7.050028324127197
            ],
            "type" : "VEC3"
        },
        {
            "bufferView" : 1,
            "componentType" : 5126,
            "count" : 40782,
            "type" : "VEC3"
        },
        {
            "bufferView" : 2,
            "componentType" : 5126,
            "count" : 40782,
            "type" : "VEC2"
        },
        {
            "bufferView" : 3,
            "componentType" : 5123,
            "count" : 73950,
            "type" : "SCALAR"
        }
    ],
    "bufferViews" : [
        {
            "buffer" : 0,
            "byteLength" : 489384,
            "byteOffset" : 0
        },
        {
            "buffer" : 0,
            "byteLength" : 489384,
            "byteOffset" : 489384
        },
        {
            "buffer" : 0,
            "byteLength" : 326256,
            "byteOffset" : 978768
        },
        {
            "buffer" : 0,
            "byteLength" : 147900,
            "byteOffset" : 1305024
        },
        {
            "buffer" : 0,
            "byteLength" : 1319562,
            "byteOffset" : 1452924
        }
    ],
    "samplers" : [
        {
            "magFilter" : 9729,
            "minFilter" : 9987
        }
    ],
    "buffers" : [
        {
            "byteLength" : 2772488,
            "uri" : "data:application/octet-stream;base64,"
        }
    ]
}
